<mxfile host="app.diagrams.net" modified="2023-02-24T06:29:12.076Z" agent="5.0 (Macintosh; Intel Mac OS X 10_15_7) AppleWebKit/605.1.15 (KHTML, like Gecko) Version/16.2 Safari/605.1.15" etag="kkBl-dEsocaEb9-e8Vdu" version="20.8.23" type="github">
  <diagram name="Page-1" id="zGwfKtvlQI2-6Zpr1AR8">
    <mxGraphModel dx="1164" dy="608" grid="0" gridSize="10" guides="1" tooltips="1" connect="1" arrows="1" fold="1" page="1" pageScale="1" pageWidth="1169" pageHeight="827" math="0" shadow="0">
      <root>
        <mxCell id="0" />
        <mxCell id="1" parent="0" />
        <mxCell id="-l7AwlqCend7xia98K0p-11" style="edgeStyle=orthogonalEdgeStyle;rounded=0;orthogonalLoop=1;jettySize=auto;html=1;exitX=1;exitY=0.75;exitDx=0;exitDy=0;entryX=0;entryY=0.5;entryDx=0;entryDy=0;" edge="1" parent="1" source="-l7AwlqCend7xia98K0p-3" target="-l7AwlqCend7xia98K0p-10">
          <mxGeometry relative="1" as="geometry">
            <Array as="points">
              <mxPoint x="315" y="473" />
              <mxPoint x="315" y="548" />
            </Array>
          </mxGeometry>
        </mxCell>
        <mxCell id="-l7AwlqCend7xia98K0p-12" style="edgeStyle=orthogonalEdgeStyle;rounded=0;orthogonalLoop=1;jettySize=auto;html=1;exitX=1;exitY=0.25;exitDx=0;exitDy=0;entryX=0;entryY=0.5;entryDx=0;entryDy=0;" edge="1" parent="1" source="-l7AwlqCend7xia98K0p-3" target="-l7AwlqCend7xia98K0p-9">
          <mxGeometry relative="1" as="geometry">
            <Array as="points">
              <mxPoint x="315" y="450" />
              <mxPoint x="315" y="352" />
            </Array>
          </mxGeometry>
        </mxCell>
        <mxCell id="-l7AwlqCend7xia98K0p-47" style="edgeStyle=orthogonalEdgeStyle;rounded=0;orthogonalLoop=1;jettySize=auto;html=1;exitX=0.75;exitY=1;exitDx=0;exitDy=0;entryX=0.5;entryY=1;entryDx=0;entryDy=0;" edge="1" parent="1" source="-l7AwlqCend7xia98K0p-3" target="-l7AwlqCend7xia98K0p-43">
          <mxGeometry relative="1" as="geometry" />
        </mxCell>
        <mxCell id="-l7AwlqCend7xia98K0p-3" value="User inputs" style="rounded=0;whiteSpace=wrap;html=1;" vertex="1" parent="1">
          <mxGeometry x="206" y="439" width="89" height="45" as="geometry" />
        </mxCell>
        <mxCell id="-l7AwlqCend7xia98K0p-33" style="edgeStyle=orthogonalEdgeStyle;rounded=0;orthogonalLoop=1;jettySize=auto;html=1;exitX=0;exitY=0.5;exitDx=0;exitDy=0;entryX=1;entryY=0.5;entryDx=0;entryDy=0;" edge="1" parent="1" source="-l7AwlqCend7xia98K0p-8" target="-l7AwlqCend7xia98K0p-13">
          <mxGeometry relative="1" as="geometry" />
        </mxCell>
        <mxCell id="-l7AwlqCend7xia98K0p-52" style="edgeStyle=orthogonalEdgeStyle;rounded=0;orthogonalLoop=1;jettySize=auto;html=1;exitX=1;exitY=0.5;exitDx=0;exitDy=0;entryX=0;entryY=0;entryDx=0;entryDy=55;entryPerimeter=0;" edge="1" parent="1" source="-l7AwlqCend7xia98K0p-8" target="-l7AwlqCend7xia98K0p-51">
          <mxGeometry relative="1" as="geometry" />
        </mxCell>
        <mxCell id="-l7AwlqCend7xia98K0p-8" value="Password changing system" style="ellipse;whiteSpace=wrap;html=1;aspect=fixed;rounded=0;strokeColor=default;fontFamily=Helvetica;fontSize=12;fontColor=default;fillColor=none;" vertex="1" parent="1">
          <mxGeometry x="711" y="400.5" width="100" height="100" as="geometry" />
        </mxCell>
        <mxCell id="-l7AwlqCend7xia98K0p-14" style="edgeStyle=orthogonalEdgeStyle;rounded=0;orthogonalLoop=1;jettySize=auto;html=1;exitX=1;exitY=0.5;exitDx=0;exitDy=0;entryX=0.5;entryY=0;entryDx=0;entryDy=0;" edge="1" parent="1" source="-l7AwlqCend7xia98K0p-9" target="-l7AwlqCend7xia98K0p-8">
          <mxGeometry relative="1" as="geometry" />
        </mxCell>
        <mxCell id="-l7AwlqCend7xia98K0p-9" value="Password verification&lt;br&gt;system" style="ellipse;whiteSpace=wrap;html=1;aspect=fixed;rounded=0;strokeColor=default;fontFamily=Helvetica;fontSize=12;fontColor=default;fillColor=none;" vertex="1" parent="1">
          <mxGeometry x="428" y="310" width="84" height="84" as="geometry" />
        </mxCell>
        <mxCell id="-l7AwlqCend7xia98K0p-45" style="edgeStyle=orthogonalEdgeStyle;rounded=0;orthogonalLoop=1;jettySize=auto;html=1;exitX=1;exitY=0.5;exitDx=0;exitDy=0;entryX=0;entryY=0.5;entryDx=0;entryDy=0;" edge="1" parent="1" source="-l7AwlqCend7xia98K0p-10" target="-l7AwlqCend7xia98K0p-43">
          <mxGeometry relative="1" as="geometry" />
        </mxCell>
        <mxCell id="-l7AwlqCend7xia98K0p-10" value="Send verification code" style="ellipse;whiteSpace=wrap;html=1;aspect=fixed;rounded=0;strokeColor=default;fontFamily=Helvetica;fontSize=12;fontColor=default;fillColor=none;" vertex="1" parent="1">
          <mxGeometry x="428" y="506" width="84" height="84" as="geometry" />
        </mxCell>
        <mxCell id="-l7AwlqCend7xia98K0p-38" style="edgeStyle=orthogonalEdgeStyle;rounded=0;orthogonalLoop=1;jettySize=auto;html=1;exitX=0.5;exitY=1;exitDx=0;exitDy=0;entryX=0.5;entryY=0;entryDx=0;entryDy=0;" edge="1" parent="1" source="-l7AwlqCend7xia98K0p-13" target="-l7AwlqCend7xia98K0p-10">
          <mxGeometry relative="1" as="geometry" />
        </mxCell>
        <mxCell id="-l7AwlqCend7xia98K0p-40" value="" style="edgeStyle=orthogonalEdgeStyle;rounded=0;orthogonalLoop=1;jettySize=auto;html=1;" edge="1" parent="1" source="-l7AwlqCend7xia98K0p-13" target="-l7AwlqCend7xia98K0p-9">
          <mxGeometry relative="1" as="geometry" />
        </mxCell>
        <mxCell id="-l7AwlqCend7xia98K0p-13" value="User entity(database)" style="shape=partialRectangle;whiteSpace=wrap;html=1;left=0;right=0;fillColor=none;rounded=0;strokeColor=default;fontFamily=Helvetica;fontSize=12;fontColor=default;" vertex="1" parent="1">
          <mxGeometry x="410" y="439" width="120" height="23" as="geometry" />
        </mxCell>
        <mxCell id="-l7AwlqCend7xia98K0p-17" value="old password,&lt;br&gt;repeated new password" style="text;html=1;align=center;verticalAlign=middle;resizable=0;points=[];autosize=1;strokeColor=none;fillColor=none;" vertex="1" parent="1">
          <mxGeometry x="281" y="317" width="145" height="40" as="geometry" />
        </mxCell>
        <mxCell id="-l7AwlqCend7xia98K0p-18" style="edgeStyle=orthogonalEdgeStyle;rounded=0;orthogonalLoop=1;jettySize=auto;html=1;exitX=0.5;exitY=1;exitDx=0;exitDy=0;" edge="1" parent="1" source="-l7AwlqCend7xia98K0p-13" target="-l7AwlqCend7xia98K0p-13">
          <mxGeometry relative="1" as="geometry" />
        </mxCell>
        <mxCell id="-l7AwlqCend7xia98K0p-21" value="" style="edgeStyle=orthogonalEdgeStyle;rounded=0;orthogonalLoop=1;jettySize=auto;html=1;" edge="1" parent="1" source="-l7AwlqCend7xia98K0p-20" target="-l7AwlqCend7xia98K0p-9">
          <mxGeometry relative="1" as="geometry" />
        </mxCell>
        <mxCell id="-l7AwlqCend7xia98K0p-20" value="Browser" style="shape=partialRectangle;whiteSpace=wrap;html=1;left=0;right=0;fillColor=none;rounded=0;strokeColor=default;fontFamily=Helvetica;fontSize=12;fontColor=default;" vertex="1" parent="1">
          <mxGeometry x="441.13" y="251" width="57.75" height="25" as="geometry" />
        </mxCell>
        <mxCell id="-l7AwlqCend7xia98K0p-22" value="decoded user id" style="text;html=1;align=center;verticalAlign=middle;resizable=0;points=[];autosize=1;strokeColor=none;fillColor=none;" vertex="1" parent="1">
          <mxGeometry x="468" y="276" width="103" height="26" as="geometry" />
        </mxCell>
        <mxCell id="-l7AwlqCend7xia98K0p-31" value="user id, new password" style="text;html=1;align=center;verticalAlign=middle;resizable=0;points=[];autosize=1;strokeColor=none;fillColor=none;" vertex="1" parent="1">
          <mxGeometry x="589" y="331" width="137" height="26" as="geometry" />
        </mxCell>
        <mxCell id="-l7AwlqCend7xia98K0p-34" value="new password" style="text;html=1;align=center;verticalAlign=middle;resizable=0;points=[];autosize=1;strokeColor=none;fillColor=none;" vertex="1" parent="1">
          <mxGeometry x="597" y="428" width="95" height="26" as="geometry" />
        </mxCell>
        <mxCell id="-l7AwlqCend7xia98K0p-35" value="email, new password" style="text;html=1;align=center;verticalAlign=middle;resizable=0;points=[];autosize=1;strokeColor=none;fillColor=none;" vertex="1" parent="1">
          <mxGeometry x="637" y="527" width="130" height="26" as="geometry" />
        </mxCell>
        <mxCell id="-l7AwlqCend7xia98K0p-39" value="email&lt;br&gt;&amp;nbsp;confirm" style="text;html=1;align=center;verticalAlign=middle;resizable=0;points=[];autosize=1;strokeColor=none;fillColor=none;" vertex="1" parent="1">
          <mxGeometry x="468" y="458" width="61" height="40" as="geometry" />
        </mxCell>
        <mxCell id="-l7AwlqCend7xia98K0p-41" value="old password&amp;nbsp;&lt;br&gt;confirm" style="text;html=1;align=center;verticalAlign=middle;resizable=0;points=[];autosize=1;strokeColor=none;fillColor=none;" vertex="1" parent="1">
          <mxGeometry x="468" y="400.5" width="92" height="40" as="geometry" />
        </mxCell>
        <mxCell id="-l7AwlqCend7xia98K0p-42" value="&lt;span style=&quot;caret-color: rgb(0, 0, 0); color: rgb(0, 0, 0); font-family: Helvetica; font-size: 12px; font-style: normal; font-variant-caps: normal; font-weight: 400; letter-spacing: normal; text-align: center; text-indent: 0px; text-transform: none; word-spacing: 0px; -webkit-text-stroke-width: 0px; background-color: rgb(251, 251, 251); text-decoration: none; float: none; display: inline !important;&quot;&gt;email&lt;/span&gt;" style="text;html=1;align=center;verticalAlign=middle;resizable=0;points=[];autosize=1;strokeColor=none;fillColor=none;" vertex="1" parent="1">
          <mxGeometry x="350" y="527" width="47" height="26" as="geometry" />
        </mxCell>
        <mxCell id="-l7AwlqCend7xia98K0p-44" style="edgeStyle=orthogonalEdgeStyle;rounded=0;orthogonalLoop=1;jettySize=auto;html=1;exitX=1;exitY=0.5;exitDx=0;exitDy=0;entryX=0.5;entryY=1;entryDx=0;entryDy=0;" edge="1" parent="1" source="-l7AwlqCend7xia98K0p-43" target="-l7AwlqCend7xia98K0p-8">
          <mxGeometry relative="1" as="geometry" />
        </mxCell>
        <mxCell id="-l7AwlqCend7xia98K0p-43" value="Code verification" style="ellipse;whiteSpace=wrap;html=1;aspect=fixed;rounded=0;strokeColor=default;fontFamily=Helvetica;fontSize=12;fontColor=default;fillColor=none;" vertex="1" parent="1">
          <mxGeometry x="553" y="506" width="84" height="84" as="geometry" />
        </mxCell>
        <mxCell id="-l7AwlqCend7xia98K0p-46" value="email" style="text;html=1;align=center;verticalAlign=middle;resizable=0;points=[];autosize=1;strokeColor=none;fillColor=none;" vertex="1" parent="1">
          <mxGeometry x="506" y="527" width="47" height="26" as="geometry" />
        </mxCell>
        <mxCell id="-l7AwlqCend7xia98K0p-48" value="verification code, new password" style="text;html=1;align=center;verticalAlign=middle;resizable=0;points=[];autosize=1;strokeColor=none;fillColor=none;" vertex="1" parent="1">
          <mxGeometry x="271" y="590" width="188" height="26" as="geometry" />
        </mxCell>
        <mxCell id="-l7AwlqCend7xia98K0p-51" value="Direct to previous page" style="shape=card;whiteSpace=wrap;html=1;" vertex="1" parent="1">
          <mxGeometry x="861" y="396" width="130" height="80" as="geometry" />
        </mxCell>
      </root>
    </mxGraphModel>
  </diagram>
</mxfile>
